<?xml version="1.0" encoding="UTF-8"?>
<svg width="70px" height="69px" viewBox="0 0 70 69" xmlns="http://www.w3.org/2000/svg" xmlns:xlink="http://www.w3.org/1999/xlink" version="1.1">
 <!-- Generated by Pixelmator Pro 2.0.5 -->
 <g id="New-Group-copy">
  <path id="Rounded-Rectangle-copy-1" d="M9.974 28.02 C7.629 28.02 5.728 29.921 5.728 32.266 L5.728 62.374 C5.728 64.719 7.629 66.62 9.974 66.62 L63.241 66.62 C65.586 66.62 67.487 64.719 67.487 62.374 L67.487 32.266 C67.487 29.921 65.586 28.02 63.241 28.02 Z" fill="#4bad7f" fill-opacity="1" stroke="none"/>
  <defs>
   <path id="Rounded-Rectangle-copy" d="M3.992 16.393 C2.773 16.72 2.05 17.973 2.376 19.192 L5.182 29.661 C5.508 30.88 6.761 31.604 7.98 31.277 L63.221 16.475 C64.44 16.149 65.163 14.896 64.837 13.677 L62.031 3.207 C61.705 1.988 60.452 1.265 59.233 1.591 Z"/>
  </defs>
  <defs>
   <path id="stroke-path" d="M63.063 15 L63.375 14.625 63.469 13.969 60.703 3.656 60.141 3.047 59.328 2.984 4.594 17.672 3.938 18.125 3.734 18.969 6.438 29.063 6.859 29.672 7.922 29.875 Z"/>
  </defs>
  <use id="Rounded-Rectangle-copy-1" stroke="#4bad7f" stroke-opacity="1" stroke-linecap="round" fill="none" stroke-width="2.76" xlink:href="#stroke-path"/>
 </g>
</svg>
