<?xml version="1.0" encoding="UTF-8"?>
<svg width="80px" height="70px" viewBox="0 0 80 70" xmlns="http://www.w3.org/2000/svg" xmlns:xlink="http://www.w3.org/1999/xlink" version="1.1">
 <!-- Generated by Pixelmator Pro 2.0.5 -->
 <g id="New-Group-copy">
  <path id="Triangle" d="M54.199 43.716 C54.199 50.862 65.818 54.437 72.775 54.42 73.898 54.418 76.481 47.326 76.482 43.716 76.483 40.098 73.95 33.029 72.775 33.012 65.753 32.907 54.199 36.569 54.199 43.716 Z" fill="#4bad7f" fill-opacity="1" stroke="none"/>
  <path id="Rounded-Rectangle-copy-1" d="M11.048 26.962 C8.98 26.962 7.304 28.639 7.304 30.706 L7.304 57.256 C7.304 59.324 8.98 61 11.048 61 L58.02 61 C60.088 61 61.765 59.324 61.765 57.256 L61.765 30.706 C61.765 28.639 60.088 26.962 58.02 26.962 Z" fill="#4bad7f" fill-opacity="1" stroke="none"/>
  <defs>
   <path id="Ellipse" d="M29.557 22.667 C29.557 16.114 24.245 10.802 17.691 10.802 11.138 10.802 5.826 16.114 5.826 22.667 5.826 29.221 11.138 34.533 17.691 34.533 24.245 34.533 29.557 29.221 29.557 22.667 Z"/>
  </defs>
  <defs>
   <path id="stroke-path" d="M20.625 30.641 L22.75 29.484 24.484 27.766 25.625 25.641 26.141 22.672 25.625 19.734 24.453 17.547 22.813 15.906 20.578 14.703 18.109 14.188 15.563 14.453 13.375 15.375 10.828 17.703 9.734 19.703 9.219 22.672 9.734 25.656 10.828 27.656 13.391 29.984 15.547 30.891 18.109 31.156 Z"/>
  </defs>
  <use id="Ellipse-1" stroke="#4bad7f" stroke-opacity="1" stroke-linecap="round" fill="none" stroke-width="6.693" xlink:href="#stroke-path"/>
  <defs>
   <path id="Ellipse-copy" d="M57.491 18.033 C57.491 9.215 50.342 2.066 41.524 2.066 32.706 2.066 25.557 9.215 25.557 18.033 25.557 26.851 32.706 34 41.524 34 50.342 34 57.491 26.851 57.491 18.033 Z"/>
  </defs>
  <defs>
   <path id="stroke-path-1" d="M44.141 29.391 L47.688 27.969 49.344 26.719 50.828 25.094 52.547 21.797 53.188 17.938 52.906 15.422 51.906 12.719 50.156 10.156 48.578 8.719 45.328 7.016 41.203 6.406 37.063 7.25 35.469 8.031 33.688 9.359 32.078 11.141 31.172 12.594 30.047 15.922 29.953 19.516 31.203 23.531 32.078 24.938 33.594 26.609 36.703 28.656 40.656 29.672 Z"/>
  </defs>
  <use id="Ellipse-copy-1" stroke="#4bad7f" stroke-opacity="1" stroke-linecap="round" fill="none" stroke-width="8.519" xlink:href="#stroke-path-1"/>
 </g>
</svg>
