<?xml version="1.0" encoding="UTF-8"?>
<svg width="95px" height="60px" viewBox="0 0 95 60" xmlns="http://www.w3.org/2000/svg" xmlns:xlink="http://www.w3.org/1999/xlink" version="1.1">
 <!-- Generated by Pixelmator Pro 2.0.5 -->
 <g id="New-Group-copy">
  <path id="Path" d="M22.096 2.356 C15.292 2.356 8.145 15.563 6.644 20.898 3.35 32.608 0.464 47.594 0.464 47.594 0.464 53.331 5.98 57.982 12.784 57.982 12.784 57.982 18.059 58.43 22.096 54.891 29.601 48.314 35.302 39.441 46.818 39.44 58.335 39.439 61.744 48.837 71.541 54.891 76.81 58.148 80.853 57.982 80.853 57.982 87.657 57.982 93.173 53.331 93.173 47.594 93.173 47.594 91.057 29.078 86.992 20.898 83.413 13.693 78.345 2.356 71.541 2.356 L22.096 2.356 Z" fill="#4bad7f" fill-opacity="1" stroke="none"/>
  <path id="Ellipse-copy-3" d="M31.53 18.006 C31.53 13.204 27.637 9.312 22.836 9.312 18.034 9.312 14.141 13.204 14.141 18.006 14.141 22.808 18.034 26.7 22.836 26.7 27.637 26.7 31.53 22.808 31.53 18.006 Z" fill="#11161e" fill-opacity="1" stroke="none"/>
  <g id="New-Group">
   <path id="Ellipse" d="M73.263 13.833 C73.263 12.104 71.862 10.703 70.133 10.703 68.404 10.703 67.003 12.104 67.003 13.833 67.003 15.561 68.404 16.963 70.133 16.963 71.862 16.963 73.263 15.561 73.263 13.833 Z" fill="#11161e" fill-opacity="1" stroke="none"/>
   <path id="Ellipse-copy" d="M73.263 27.048 C73.263 25.319 71.862 23.918 70.133 23.918 68.404 23.918 67.003 25.319 67.003 27.048 67.003 28.777 68.404 30.178 70.133 30.178 71.862 30.178 73.263 28.777 73.263 27.048 Z" fill="#11161e" fill-opacity="1" stroke="none"/>
   <path id="Ellipse-copy-1" d="M79.523 20.093 C79.523 18.364 78.121 16.963 76.393 16.963 74.664 16.963 73.263 18.364 73.263 20.093 73.263 21.821 74.664 23.223 76.393 23.223 78.121 23.223 79.523 21.821 79.523 20.093 Z" fill="#11161e" fill-opacity="1" stroke="none"/>
   <path id="Ellipse-copy-2" d="M66.307 20.093 C66.307 18.364 64.906 16.963 63.177 16.963 61.449 16.963 60.047 18.364 60.047 20.093 60.047 21.821 61.449 23.223 63.177 23.223 64.906 23.223 66.307 21.821 66.307 20.093 Z" fill="#11161e" fill-opacity="1" stroke="none"/>
  </g>
 </g>
</svg>
