<?xml version="1.0" encoding="UTF-8"?>
<svg width="345px" height="346px" viewBox="0 0 345 346" xmlns="http://www.w3.org/2000/svg" xmlns:xlink="http://www.w3.org/1999/xlink" version="1.1">
 <!-- Generated by Pixelmator Pro 2.0.5 -->
 <g id="New-Group-copy">
  <path id="Path" d="M344.393 172 C344.393 77.007 267.386 0 172.393 0 77.401 0 0.393 77.007 0.393 172 0.393 266.993 77.401 344 172.393 344 267.386 344 344.393 266.993 344.393 172 Z" fill="#4bad7f" fill-opacity="1" stroke="none"/>
  <path id="Ghost" d="M200.034 283.656 L172.891 271.076 147.427 283.418 117.256 269.992 84.891 283.649 84.891 127.957 C84.891 79.357 124.29 39.957 172.891 39.957 221.49 39.957 260.89 79.357 260.89 127.957 L260.89 283.649 231.196 270.117 200.034 283.656 Z M132.275 161.803 C143.49 161.803 152.583 152.711 152.583 141.496 152.583 130.281 143.49 121.188 132.275 121.188 121.06 121.188 111.968 130.281 111.968 141.496 111.968 152.711 121.06 161.803 132.275 161.803 Z M213.506 161.803 C224.721 161.803 233.814 152.711 233.814 141.496 233.814 130.281 224.721 121.188 213.506 121.188 202.29 121.188 193.198 130.281 193.198 141.496 193.198 152.711 202.29 161.803 213.506 161.803 Z" fill="#1d2532" fill-opacity="1" stroke="none"/>
 </g>
</svg>
