<?xml version="1.0" encoding="UTF-8"?>
<svg width="40px" height="32px" viewBox="0 0 40 32" xmlns="http://www.w3.org/2000/svg" xmlns:xlink="http://www.w3.org/1999/xlink" version="1.1">
 <!-- Generated by Pixelmator Pro 2.0.5 -->
 <g id="New-Group-copy">
  <path id="Rounded-Rectangle" d="M4.991 6.502 C2.82 6.502 1.061 8.261 1.061 10.432 L1.06 26.94 C1.06 29.111 2.82 30.87 4.991 30.87 L34.862 30.871 C37.033 30.871 38.793 29.111 38.793 26.941 L38.793 10.433 C38.793 8.262 37.033 6.502 34.863 6.502 Z" fill="#4bad7f" fill-opacity="1" stroke="none"/>
  <path id="Rounded-Rectangle-copy" d="M12.852 0.999 C9.813 0.999 7.349 6.502 7.349 6.502 7.349 6.502 6.613 6.502 10.494 6.502 11.322 6.502 12.385 2.571 13.593 2.571 15.354 2.571 17.043 1.785 19.141 1.785 21.157 1.785 23.58 2.572 25.403 2.572 26.577 2.572 27.66 6.502 28.586 6.502 30.484 6.502 31.718 6.502 31.718 6.502 31.718 6.502 29.255 0.999 26.216 0.999 Z" fill="#4bad7f" fill-opacity="1" stroke="none"/>
 </g>
</svg>
