<?xml version="1.0" encoding="UTF-8"?>
<svg width="71px" height="74px" viewBox="0 0 71 74" xmlns="http://www.w3.org/2000/svg" xmlns:xlink="http://www.w3.org/1999/xlink" version="1.1">
 <!-- Generated by Pixelmator Pro 2.0.5 -->
 <g id="New-Group-copy">
  <defs>
   <path id="Triangle" d="M1 72 L69.806 72 69.806 3.194 Z"/>
  </defs>
  <defs>
   <path id="stroke-path" d="M67.484 8.797 L6.594 69.688 67.484 69.688 Z M67.681 69.681 L69.797 3.203 Z"/>
  </defs>
  <use id="Triangle-1" stroke="#4bad7f" stroke-opacity="1" stroke-linecap="round" fill="none" stroke-width="4.639" xlink:href="#stroke-path"/>
  <g id="New-Group-copy-1">
   <path id="Rounded-Rectangle" d="M22.627 15.299 C21.975 15.676 21.752 16.509 22.128 17.162 L42.353 52.192 C42.729 52.844 43.563 53.067 44.215 52.691 L55.039 46.442 C55.691 46.065 55.915 45.231 55.538 44.579 L35.314 9.549 C34.937 8.897 34.103 8.673 33.451 9.05 Z" fill="#4bad7f" fill-opacity="1" stroke="none"/>
   <path id="Path" d="M20.748 11.136 C20.37 12.5 20.663 14.169 21.416 15.474 21.423 15.486 34.011 8.202 34.011 8.202 L34.011 8.202 C33.258 6.898 32.178 5.852 30.588 5.455 27.563 4.7 21.603 8.052 20.748 11.136 Z" fill="#4bad7f" fill-opacity="1" stroke="none"/>
   <path id="Triangle-2" d="M56.376 61.938 C60.581 59.511 55.662 46.607 55.66 46.608 53.694 47.744 45.821 52.287 43.852 53.425 43.846 53.428 52.172 64.365 56.376 61.938 Z" fill="#4bad7f" fill-opacity="1" stroke="none"/>
  </g>
 </g>
</svg>
