<?xml version="1.0" encoding="UTF-8"?>
<svg width="30px" height="40px" viewBox="0 0 30 40" xmlns="http://www.w3.org/2000/svg" xmlns:xlink="http://www.w3.org/1999/xlink" version="1.1">
 <!-- Generated by Pixelmator Pro 2.0.5 -->
 <path id="Ghost-copy" d="M19.274 39.575 L14.936 37.565 10.866 39.537 6.045 37.392 0.872 39.574 0.872 14.692 C0.872 6.925 7.169 0.628 14.936 0.628 22.703 0.628 29 6.925 29 14.692 L29 39.574 24.254 37.412 19.274 39.575 Z M8.445 20.101 C10.237 20.101 11.69 18.648 11.69 16.856 11.69 15.063 10.237 13.61 8.445 13.61 6.652 13.61 5.199 15.063 5.199 16.856 5.199 18.648 6.652 20.101 8.445 20.101 Z M21.427 20.101 C23.219 20.101 24.673 18.648 24.673 16.856 24.673 15.063 23.219 13.61 21.427 13.61 19.635 13.61 18.182 15.063 18.182 16.856 18.182 18.648 19.635 20.101 21.427 20.101 Z" fill="#4bad7f" fill-opacity="1" stroke="none"/>
</svg>
