<?xml version="1.0" encoding="UTF-8"?>
<svg width="355px" height="86px" viewBox="0 0 355 86" xmlns="http://www.w3.org/2000/svg" xmlns:xlink="http://www.w3.org/1999/xlink" version="1.1">
 <!-- Generated by Pixelmator Pro 2.0.5 -->
 <g id="New-Group-copy">
  <path id="Rounded-Rectangle" d="M9 0 C4.029 0 0 4.029 0 9 L0 77 C0 81.971 4.029 86 9 86 L346 86 C350.971 86 355 81.971 355 77 L355 9 C355 4.029 350.971 0 346 0 Z" fill="#4bad7f" fill-opacity="1" stroke="none"/>
  <path id="Ver-Proyectos" d="M329.218 53.729 C329.218 52.849 328.782 52.156 327.91 51.649 327.039 51.143 325.64 50.691 323.714 50.292 317.306 48.948 314.102 46.225 314.102 42.124 314.102 39.734 315.094 37.737 317.078 36.135 319.062 34.533 321.656 33.732 324.86 33.732 328.28 33.732 331.015 34.537 333.065 36.148 335.115 37.758 336.14 39.85 336.14 42.423 L328.944 42.423 C328.944 41.394 328.612 40.543 327.948 39.871 327.283 39.198 326.246 38.862 324.835 38.862 323.623 38.862 322.685 39.136 322.021 39.684 321.357 40.232 321.025 40.929 321.025 41.776 321.025 42.573 321.402 43.216 322.158 43.706 322.913 44.195 324.187 44.619 325.98 44.976 327.773 45.333 329.284 45.735 330.512 46.183 334.314 47.578 336.215 49.993 336.215 53.43 336.215 55.887 335.161 57.875 333.052 59.394 330.944 60.913 328.221 61.673 324.885 61.673 322.627 61.673 320.622 61.27 318.871 60.465 317.119 59.66 315.745 58.556 314.749 57.153 313.753 55.75 313.255 54.235 313.255 52.608 L320.078 52.608 C320.145 53.887 320.618 54.866 321.498 55.547 322.378 56.227 323.556 56.568 325.034 56.568 326.412 56.568 327.454 56.306 328.159 55.783 328.865 55.26 329.218 54.576 329.218 53.729 Z M284.667 47.453 C284.667 44.781 285.182 42.398 286.211 40.306 287.24 38.215 288.722 36.596 290.656 35.45 292.59 34.305 294.836 33.732 297.392 33.732 301.028 33.732 303.996 34.844 306.295 37.069 308.594 39.294 309.877 42.315 310.142 46.134 L310.192 47.976 C310.192 52.11 309.038 55.426 306.731 57.925 304.423 60.423 301.327 61.673 297.442 61.673 293.557 61.673 290.457 60.428 288.141 57.937 285.825 55.447 284.667 52.06 284.667 47.777 Z M291.864 47.976 C291.864 50.533 292.345 52.488 293.308 53.841 294.271 55.194 295.649 55.87 297.442 55.87 299.185 55.87 300.547 55.202 301.526 53.866 302.506 52.529 302.995 50.392 302.995 47.453 302.995 44.947 302.506 43.004 301.526 41.626 300.547 40.248 299.169 39.559 297.392 39.559 295.633 39.559 294.271 40.244 293.308 41.614 292.345 42.984 291.864 45.104 291.864 47.976 Z M277.919 27.606 L277.919 34.23 282.526 34.23 282.526 39.51 277.919 39.51 277.919 52.957 C277.919 53.953 278.11 54.667 278.491 55.098 278.873 55.53 279.604 55.746 280.683 55.746 281.48 55.746 282.185 55.688 282.8 55.572 L282.8 61.025 C281.388 61.457 279.936 61.673 278.442 61.673 273.395 61.673 270.822 59.124 270.722 54.028 L270.722 39.51 266.787 39.51 266.787 34.23 270.722 34.23 270.722 27.606 Z M253.913 55.87 C255.241 55.87 256.32 55.505 257.15 54.775 257.98 54.044 258.412 53.073 258.445 51.861 L265.194 51.861 C265.177 53.687 264.679 55.36 263.699 56.879 262.72 58.398 261.379 59.577 259.678 60.415 257.976 61.254 256.096 61.673 254.037 61.673 250.186 61.673 247.148 60.448 244.923 58 242.698 55.551 241.586 52.168 241.586 47.852 L241.586 47.379 C241.586 43.228 242.69 39.916 244.898 37.443 247.106 34.969 250.136 33.732 253.988 33.732 257.358 33.732 260.06 34.691 262.093 36.608 264.127 38.526 265.16 41.078 265.194 44.266 L258.445 44.266 C258.412 42.871 257.98 41.738 257.15 40.867 256.32 39.995 255.224 39.559 253.863 39.559 252.186 39.559 250.92 40.169 250.065 41.39 249.21 42.61 248.783 44.59 248.783 47.329 L248.783 48.076 C248.783 50.849 249.206 52.841 250.053 54.052 250.9 55.265 252.186 55.87 253.913 55.87 Z M227.541 61.673 C223.59 61.673 220.374 60.461 217.892 58.037 215.41 55.613 214.169 52.384 214.169 48.35 L214.169 47.653 C214.169 44.947 214.692 42.527 215.738 40.394 216.783 38.26 218.265 36.617 220.183 35.463 222.1 34.309 224.287 33.732 226.744 33.732 230.43 33.732 233.331 34.894 235.448 37.219 237.564 39.543 238.623 42.838 238.623 47.105 L238.623 50.043 221.465 50.043 C221.698 51.803 222.399 53.214 223.569 54.277 224.74 55.339 226.221 55.87 228.014 55.87 230.787 55.87 232.953 54.866 234.514 52.857 L238.05 56.817 C236.971 58.344 235.51 59.535 233.667 60.39 231.824 61.245 229.782 61.673 227.541 61.673 Z M226.719 39.559 C225.292 39.559 224.134 40.041 223.246 41.004 222.357 41.967 221.789 43.344 221.54 45.137 L231.551 45.137 231.551 44.565 C231.517 42.971 231.086 41.738 230.256 40.867 229.426 39.995 228.247 39.559 226.719 39.559 Z M199.925 50.99 L204.905 34.23 212.625 34.23 201.792 65.358 201.195 66.778 C199.584 70.297 196.928 72.057 193.226 72.057 192.18 72.057 191.117 71.899 190.038 71.584 L190.038 66.13 191.134 66.155 C192.495 66.155 193.512 65.948 194.185 65.532 194.857 65.117 195.384 64.429 195.766 63.466 L196.613 61.249 187.175 34.23 194.919 34.23 Z M160.28 47.453 C160.28 44.781 160.795 42.398 161.824 40.306 162.853 38.215 164.335 36.596 166.269 35.45 168.203 34.305 170.448 33.732 173.005 33.732 176.641 33.732 179.608 34.844 181.908 37.069 184.207 39.294 185.49 42.315 185.755 46.134 L185.805 47.976 C185.805 52.11 184.651 55.426 182.344 57.925 180.036 60.423 176.94 61.673 173.055 61.673 169.17 61.673 166.07 60.428 163.754 57.937 161.438 55.447 160.28 52.06 160.28 47.777 Z M167.477 47.976 C167.477 50.533 167.958 52.488 168.921 53.841 169.884 55.194 171.262 55.87 173.055 55.87 174.798 55.87 176.159 55.202 177.139 53.866 178.118 52.529 178.608 50.392 178.608 47.453 178.608 44.947 178.118 43.004 177.139 41.626 176.159 40.248 174.781 39.559 173.005 39.559 171.245 39.559 169.884 40.244 168.921 41.614 167.958 42.984 167.477 45.104 167.477 47.976 Z M158.836 40.979 C157.856 40.846 156.993 40.78 156.246 40.78 153.523 40.78 151.739 41.701 150.892 43.544 L150.892 61.175 143.695 61.175 143.695 34.23 150.493 34.23 150.693 37.443 C152.137 34.969 154.137 33.732 156.694 33.732 157.491 33.732 158.238 33.84 158.935 34.056 Z M118.743 48.4 L118.743 61.175 111.272 61.175 111.272 24.917 125.417 24.917 C128.139 24.917 130.534 25.415 132.601 26.411 134.668 27.407 136.258 28.822 137.37 30.657 138.482 32.491 139.038 34.579 139.038 36.92 139.038 40.473 137.822 43.274 135.39 45.324 132.958 47.375 129.592 48.4 125.292 48.4 Z M118.743 42.348 L125.417 42.348 C127.392 42.348 128.899 41.884 129.937 40.954 130.974 40.024 131.493 38.696 131.493 36.969 131.493 35.193 130.97 33.757 129.924 32.661 128.878 31.566 127.434 31.001 125.591 30.968 L118.743 30.968 Z M94.637 40.979 C93.658 40.846 92.795 40.78 92.048 40.78 89.325 40.78 87.54 41.701 86.694 43.544 L86.694 61.175 79.497 61.175 79.497 34.23 86.295 34.23 86.494 37.443 C87.939 34.969 89.939 33.732 92.496 33.732 93.293 33.732 94.04 33.84 94.737 34.056 Z M64.331 61.673 C60.38 61.673 57.164 60.461 54.682 58.037 52.2 55.613 50.959 52.384 50.959 48.35 L50.959 47.653 C50.959 44.947 51.482 42.527 52.528 40.394 53.573 38.26 55.055 36.617 56.973 35.463 58.89 34.309 61.077 33.732 63.534 33.732 67.22 33.732 70.121 34.894 72.238 37.219 74.354 39.543 75.413 42.838 75.413 47.105 L75.413 50.043 58.255 50.043 C58.488 51.803 59.189 53.214 60.359 54.277 61.53 55.339 63.011 55.87 64.804 55.87 67.577 55.87 69.743 54.866 71.304 52.857 L74.84 56.817 C73.761 58.344 72.3 59.535 70.457 60.39 68.615 61.245 66.573 61.673 64.331 61.673 Z M63.51 39.559 C62.082 39.559 60.924 40.041 60.036 41.004 59.147 41.967 58.579 43.344 58.33 45.137 L68.341 45.137 68.341 44.565 C68.307 42.971 67.876 41.738 67.046 40.867 66.216 39.995 65.037 39.559 63.51 39.559 Z M33.552 52.185 L41.77 24.917 50.087 24.917 37.462 61.175 29.667 61.175 17.092 24.917 25.384 24.917 Z" fill="#ffffff" fill-opacity="1" stroke="none"/>
 </g>
</svg>
