<?xml version="1.0" encoding="UTF-8"?>
<svg width="102px" height="67px" viewBox="0 0 102 67" xmlns="http://www.w3.org/2000/svg" xmlns:xlink="http://www.w3.org/1999/xlink" version="1.1">
 <!-- Generated by Pixelmator Pro 2.0.5 -->
 <g id="New-Group-copy-2">
  <path id="Rounded-Rectangle" d="M5.305 57.616 C2.927 57.616 1 59.543 1 61.921 L1 61.921 C1 64.298 2.927 66.225 5.305 66.225 L96.695 66.225 C99.073 66.225 101 64.298 101 61.921 L101 61.921 C101 59.543 99.073 57.616 96.695 57.616 Z" fill="#4bad7f" fill-opacity="1" stroke="none"/>
  <defs>
   <path id="Rounded-Rectangle-copy" d="M11.596 0 C7.573 0 4.311 3.262 4.311 7.285 L4.311 49.669 C4.311 53.692 7.573 56.954 11.596 56.954 L90.404 56.954 C94.427 56.954 97.689 53.692 97.689 49.669 L97.689 7.285 C97.689 3.262 94.427 0 90.404 0 Z"/>
  </defs>
  <defs>
   <path id="stroke-path" d="M90.656 55.625 L92.438 55.266 93.906 54.453 95.766 52.234 96.344 49.906 96.344 7.063 95.75 4.734 94.391 2.906 92.391 1.703 90.328 1.328 11.75 1.328 8.984 1.953 7.203 3.297 6 5.297 5.625 7.359 5.719 50.594 6.219 52.234 7.594 54.063 9.594 55.266 11.656 55.641 Z"/>
  </defs>
  <use id="Rounded-Rectangle-copy-1" stroke="#4bad7f" stroke-opacity="1" stroke-linecap="round" fill="none" stroke-width="2.649" xlink:href="#stroke-path"/>
 </g>
</svg>
