<?xml version="1.0" encoding="UTF-8"?>
<svg width="101px" height="73px" viewBox="0 0 101 73" xmlns="http://www.w3.org/2000/svg" xmlns:xlink="http://www.w3.org/1999/xlink" version="1.1">
 <!-- Generated by Pixelmator Pro 2.0.5 -->
 <g id="New-Group-copy">
  <g id="New-Group">
   <path id="Rounded-Rectangle-copy-2" d="M8.527 21.746 C11.027 21.746 13.054 23.773 13.054 26.273 L13.054 48.365 C13.054 50.865 11.027 52.892 8.527 52.892 L8.527 52.892 C6.027 52.892 4 50.865 4 48.365 L4 26.273 C4 23.773 6.027 21.746 8.527 21.746 Z" fill="#4bad7f" fill-opacity="1" stroke="none"/>
   <path id="Rounded-Rectangle-copy-1" d="M23.919 4 C28.719 4 32.611 7.892 32.611 12.692 L32.611 62.308 C32.611 67.108 28.719 71 23.919 71 L23.919 71 C19.119 71 15.227 67.108 15.227 62.308 L15.227 12.692 C15.227 7.892 19.119 4 23.919 4 Z" fill="#4bad7f" fill-opacity="1" stroke="none"/>
  </g>
  <g id="New-Group-copy-1">
   <path id="Rounded-Rectangle-copy-2-1" d="M92.186 21.746 C89.686 21.746 87.659 23.773 87.659 26.273 L87.659 48.365 C87.659 50.865 89.686 52.892 92.186 52.892 L92.186 52.892 C94.687 52.892 96.714 50.865 96.714 48.365 L96.714 26.273 C96.714 23.773 94.687 21.746 92.186 21.746 Z" fill="#4bad7f" fill-opacity="1" stroke="none"/>
   <path id="Rounded-Rectangle-copy-1-1" d="M76.795 4 C71.994 4 68.103 7.892 68.103 12.692 L68.103 62.308 C68.103 67.108 71.994 71 76.795 71 L76.795 71 C81.595 71 85.486 67.108 85.486 62.308 L85.486 12.692 C85.486 7.892 81.595 4 76.795 4 Z" fill="#4bad7f" fill-opacity="1" stroke="none"/>
  </g>
  <path id="Rounded-Rectangle-copy-3" d="M36.232 40.578 C36.232 42.178 37.53 43.476 39.13 43.476 L61.946 43.476 C63.546 43.476 64.843 42.178 64.843 40.578 L64.843 34.059 C64.843 32.459 63.546 31.162 61.946 31.162 L39.13 31.162 C37.53 31.162 36.232 32.459 36.232 34.059 Z" fill="#4bad7f" fill-opacity="1" stroke="none"/>
 </g>
</svg>
