<?xml version="1.0" encoding="UTF-8"?>
<svg width="439px" height="439px" viewBox="0 0 439 439" xmlns="http://www.w3.org/2000/svg" xmlns:xlink="http://www.w3.org/1999/xlink" version="1.1">
 <!-- Generated by Pixelmator Pro 2.0.5 -->
 <g id="group">
  <path id="Path" d="M414.41 24.123 C398.333 8.042 378.963 0 356.315 0 L82.228 0 C59.58 0 40.21 8.042 24.126 24.123 8.045 40.207 0.003 59.576 0.003 82.225 L0.003 356.309 C0.003 378.956 8.045 398.327 24.126 414.411 40.21 430.495 59.58 438.537 82.228 438.537 L356.312 438.537 C378.96 438.537 398.33 430.495 414.407 414.411 430.491 398.327 438.533 378.957 438.533 356.309 L438.533 82.225 C438.532 59.576 430.49 40.204 414.41 24.123 Z M133.618 367.157 L67.666 367.157 67.666 169.016 133.618 169.016 Z M127.626 132.332 C120.775 138.899 111.733 142.183 100.502 142.183 L100.214 142.183 C89.366 142.183 80.566 138.899 73.807 132.332 67.047 125.765 63.669 117.629 63.669 107.922 63.669 98.025 67.145 89.839 74.09 83.366 81.04 76.895 90.032 73.658 101.07 73.658 112.109 73.658 120.96 76.895 127.623 83.366 134.284 89.839 137.711 98.025 137.9 107.922 137.899 117.625 134.477 125.761 127.626 132.332 Z M370.873 367.157 L304.921 367.157 304.921 261.237 C304.921 231.358 293.885 216.414 271.805 216.414 263.431 216.414 256.385 218.745 250.677 223.409 244.962 228.07 240.681 233.733 237.83 240.4 236.495 243.822 235.831 249.15 235.831 256.381 L235.831 367.156 169.879 367.156 C170.45 247.627 170.45 181.577 169.879 169.014 L235.831 169.014 235.831 196.988 C249.698 175.307 269.389 164.444 294.932 164.444 317.772 164.444 336.142 171.964 350.036 186.998 363.931 202.035 370.877 224.212 370.877 253.517 L370.877 367.157 Z" fill="#4bad7f" fill-opacity="1" stroke="none"/>
 </g>
</svg>
