<?xml version="1.0" encoding="UTF-8"?>
<svg width="91px" height="72px" viewBox="0 0 91 72" xmlns="http://www.w3.org/2000/svg" xmlns:xlink="http://www.w3.org/1999/xlink" version="1.1">
 <!-- Generated by Pixelmator Pro 2.0.5 -->
 <g id="New-Group-copy">
  <path id="Rounded-Rectangle" d="M10.879 14.581 C5.865 14.581 1.8 18.646 1.8 23.66 L1.8 61.792 C1.8 66.806 5.865 70.871 10.879 70.871 L79.879 70.871 C84.893 70.871 88.958 66.806 88.958 61.792 L88.958 23.66 C88.958 18.646 84.893 14.581 79.879 14.581 Z" fill="#4bad7f" fill-opacity="1" stroke="none"/>
  <path id="Rounded-Rectangle-copy" d="M29.037 1.871 C22.017 1.871 16.326 14.581 16.326 14.581 16.326 14.581 14.625 14.581 23.589 14.581 25.502 14.581 27.958 5.503 30.747 5.503 34.815 5.503 38.716 3.687 43.563 3.687 48.22 3.687 53.817 5.503 58.027 5.503 60.74 5.503 63.242 14.581 65.38 14.581 69.764 14.581 72.615 14.581 72.615 14.581 72.615 14.581 66.925 1.871 59.905 1.871 Z" fill="#4bad7f" fill-opacity="1" stroke="none"/>
 </g>
</svg>
