<?xml version="1.0" encoding="UTF-8"?>
<svg width="89px" height="83px" viewBox="0 0 89 83" xmlns="http://www.w3.org/2000/svg" xmlns:xlink="http://www.w3.org/1999/xlink" version="1.1">
 <!-- Generated by Pixelmator Pro 2.0.5 -->
 <defs>
  <path id="Screen-copy" d="M22.368 82 C22.176 81.998 21.981 81.966 21.79 81.899 20.85 81.571 20.353 80.543 20.681 79.603 L31.214 49.709 35.013 49.709 24.087 80.79 C23.825 81.539 23.12 82.007 22.368 82 Z M64.892 82 C64.153 81.992 63.465 81.527 63.208 80.79 L52.489 49.709 56.288 49.709 66.614 79.603 C66.942 80.543 66.445 81.571 65.505 81.899 65.314 81.966 65.119 81.998 64.927 82 64.915 82 64.904 82 64.892 82 Z M43.568 76.647 C42.572 76.647 41.852 75.837 41.852 74.782 L41.852 49.709 45.271 49.709 45.271 74.782 C45.271 75.922 44.564 76.647 43.568 76.647 Z M5.002 46.67 C2.397 46.819 0.063 44.767 0.063 42.111 L0.063 5.641 C0.244 3.109 2.346 1.082 5.002 1.082 L82.501 1.082 C85.008 0.957 87.059 2.985 87.059 5.641 L87.059 42.111 C87.161 44.666 85.156 46.67 82.501 46.67 Z"/>
 </defs>
 <defs>
  <path id="stroke-path" d="M83.063 43.547 L83.594 43.234 83.891 42.844 84.063 42.063 84 5.344 83.891 4.969 83.5 4.453 83 4.156 82.531 4.078 5.406 4.094 3.984 4.469 3.469 4.953 3.063 6.141 3.063 41.969 3.281 42.781 3.672 43.25 4.25 43.563 5.203 43.672 82.297 43.672 Z"/>
 </defs>
 <use id="Screen-copy-1" stroke="#4bad7f" stroke-opacity="1" stroke-linecap="round" fill="none" stroke-width="6" xlink:href="#stroke-path"/>
</svg>
