<?xml version="1.0" encoding="UTF-8"?>
<svg width="32px" height="48px" viewBox="0 0 32 48" xmlns="http://www.w3.org/2000/svg" xmlns:xlink="http://www.w3.org/1999/xlink" version="1.1">
 <!-- Generated by Pixelmator Pro 2.0.5 -->
 <g id="New-Group-copy">
  <path id="Rounded-Rectangle" d="M20.502 3.479 C19.963 3.193 19.295 3.397 19.009 3.936 L3.633 32.854 C3.347 33.392 3.551 34.06 4.089 34.347 L13.025 39.098 C13.563 39.384 14.231 39.179 14.518 38.641 L29.893 9.723 C30.18 9.185 29.975 8.517 29.437 8.23 Z" fill="#4bad7f" fill-opacity="1" stroke="none"/>
  <path id="Path" d="M22.554 0.403 C21.456 0.728 20.435 1.646 19.862 2.722 19.857 2.733 30.26 8.251 30.26 8.251 L30.26 8.251 C30.832 7.174 31.087 5.984 30.677 4.722 29.898 2.321 25.039 -0.333 22.554 0.403 Z" fill="#4bad7f" fill-opacity="1" stroke="none"/>
  <path id="Triangle" d="M2.958 46.665 C6.428 48.51 13.178 39.596 13.177 39.595 11.553 38.733 5.055 35.276 3.429 34.412 3.425 34.41 -0.513 44.819 2.958 46.665 Z" fill="#4bad7f" fill-opacity="1" stroke="none"/>
 </g>
</svg>
