<?xml version="1.0" encoding="UTF-8"?>
<svg width="439px" height="439px" viewBox="0 0 439 439" xmlns="http://www.w3.org/2000/svg" xmlns:xlink="http://www.w3.org/1999/xlink" version="1.1">
 <!-- Generated by Pixelmator Pro 2.0.5 -->
 <g id="group">
  <path id="Path" d="M437.27 83.996 C421.208 91.119 403.946 95.933 385.83 98.099 404.321 87.015 418.522 69.463 425.208 48.55 407.905 58.812 388.737 66.265 368.337 70.283 351.999 52.878 328.723 42 302.964 42 253.502 42 213.4 82.1 213.4 131.559 213.4 138.579 214.193 145.414 215.721 151.969 141.286 148.234 75.293 112.578 31.119 58.394 23.41 71.622 18.994 87.006 18.994 103.419 18.994 134.492 34.808 161.903 58.838 177.965 44.156 177.499 30.347 173.472 18.27 166.763 18.265 167.137 18.265 167.512 18.265 167.889 18.265 211.282 49.137 247.48 90.108 255.708 82.592 257.754 74.68 258.849 66.511 258.849 60.739 258.849 55.129 258.288 49.662 257.243 61.058 292.824 94.133 318.718 133.324 319.441 102.673 343.461 64.054 357.78 22.095 357.78 14.867 357.78 7.737 357.355 0.73 356.528 40.365 381.939 87.443 396.766 138.02 396.766 302.756 396.766 392.838 260.295 392.838 141.945 392.838 138.061 392.751 134.198 392.579 130.358 410.076 117.731 425.261 101.958 437.27 83.996" fill="#4bad7f" fill-opacity="1" stroke="none"/>
 </g>
</svg>
